<svg xmlns="http://www.w3.org/2000/svg" width="562" height="574" viewBox="219 213 562 574">
  <metadata><?xpacket begin="﻿" id="W5M0MpCehiHzreSzNTczkc9d"?>
<x:xmpmeta xmlns:x="adobe:ns:meta/" x:xmptk="Adobe XMP Core 5.6-c138 79.159824, 2016/09/14-01:09:01        ">
   <rdf:RDF xmlns:rdf="http://www.w3.org/1999/02/22-rdf-syntax-ns#">
      <rdf:Description rdf:about=""/>
   </rdf:RDF>
</x:xmpmeta>
                                                                                                    
                                                                                                    
                                                                                                    
                                                                                                    
                                                                                                    
                                                                                                    
                                                                                                    
                                                                                                    
                                                                                                    
                                                                                                    
                                                                                                    
                                                                                                    
                                                                                                    
                                                                                                    
                                                                                                    
                                                                                                    
                                                                                                    
                                                                                                    
                                                                                                    
                                                                                                    
                           
<?xpacket end="w"?></metadata>
<defs>
    <style>
      .cls-1, .cls-2 {
        fill: #fff;
      }

      .cls-2 {
        fill-rule: evenodd;
      }
    </style>
  </defs>
  <rect id="Rounded_Rectangle_1_copy_3" data-name="Rounded Rectangle 1 copy 3" class="cls-1" x="456" y="230" width="85" height="487" rx="21" ry="21"/>
  <path id="Rounded_Rectangle_1_copy" data-name="Rounded Rectangle 1 copy" class="cls-2" d="M453.154,707.242L690.742,469.654a21,21,0,0,1,29.7,0l30.406,30.406a21,21,0,0,1,0,29.7L513.258,767.346a21,21,0,0,1-29.7,0L453.154,736.94A21,21,0,0,1,453.154,707.242Z"/>
  <path id="Rounded_Rectangle_1_copy_2" data-name="Rounded Rectangle 1 copy 2" class="cls-2" d="M543.847,707.717L306.283,470.153a21,21,0,0,0-29.7,0l-30.4,30.4a21,21,0,0,0,0,29.695L483.749,767.815a21,21,0,0,0,29.695,0l30.4-30.4A21,21,0,0,0,543.847,707.717Z"/>
</svg>
